<svg width="178" height="173" viewBox="0 0 178 173" fill="none" xmlns="http://www.w3.org/2000/svg">
<g filter="url(#filter0_b_144_1154)">
<path d="M145.068 19.3689C161.002 19.1632 175.394 30.86 177.693 47.3382C178.685 54.4334 177.197 61.1686 174.323 67.6725C171.189 74.7677 166.722 81.0145 161.655 86.8758C156.927 92.3257 151.703 97.2871 146.113 101.863C145.277 102.557 144.755 102.48 143.971 101.837C134.202 93.7652 125.477 84.7935 118.999 73.8937C115.813 68.5209 113.357 62.8396 112.495 56.5928C111.111 46.8241 113.592 38.0579 120.123 30.5515C125.869 23.919 133.314 20.32 142.116 19.3946C142.247 19.3689 142.378 19.3689 142.508 19.3689C143.37 19.3689 144.206 19.3689 145.068 19.3689Z" fill="url(#paint0_linear_144_1154)"/>
</g>
<g filter="url(#filter1_f_144_1154)">
<path d="M73.5754 28.0942C95.6187 27.8045 115.53 44.2827 118.71 67.4972C120.083 77.4927 118.023 86.9813 114.048 96.144C109.712 106.14 103.533 114.94 96.5221 123.197C89.9814 130.875 82.7541 137.865 75.0208 144.311C73.8644 145.289 73.1417 145.18 72.0576 144.275C58.5425 132.903 46.4729 120.264 37.511 104.908C33.1023 97.3391 29.7055 89.3354 28.513 80.5349C26.5977 66.7728 30.0307 54.4232 39.0649 43.8481C47.0149 34.5044 57.3139 29.4342 69.4919 28.1304C69.6726 28.0942 69.8533 28.0942 70.034 28.0942C71.2265 28.0942 72.3828 28.0942 73.5754 28.0942Z" fill="black" fill-opacity="0.17"/>
</g>
<g filter="url(#filter2_b_144_1154)">
<path d="M102.312 15.0036C123.844 14.7257 143.294 30.5321 146.4 52.8C147.741 62.3881 145.729 71.4898 141.846 80.2788C137.611 89.8669 131.575 98.3085 124.727 106.229C118.338 113.594 111.278 120.299 103.724 126.482C102.595 127.42 101.889 127.316 100.83 126.447C87.6281 115.539 75.8385 103.415 67.0845 88.6858C62.7781 81.4252 59.4601 73.7478 58.2952 65.3062C56.4244 52.1052 59.7778 40.2591 68.6024 30.1152C76.368 21.1525 86.428 16.289 98.3235 15.0383C98.5 15.0036 98.6765 15.0036 98.853 15.0036C100.018 15.0036 101.147 15.0036 102.312 15.0036Z" fill="white" fill-opacity="0.4"/>
<path d="M102.312 15.5036L102.319 15.5036C123.607 15.2288 142.834 30.8584 145.905 52.8691L145.905 52.8693C147.23 62.3402 145.246 71.3464 141.389 80.0768C137.18 89.6038 131.177 98.0033 124.348 105.902C117.981 113.242 110.942 119.927 103.407 126.095L103.405 126.097C102.876 126.536 102.537 126.653 102.27 126.643C101.99 126.632 101.658 126.48 101.148 126.062C87.9731 115.176 76.2292 103.094 67.5146 88.4307C63.2288 81.2049 59.9433 73.5917 58.7906 65.2378L58.7903 65.236C56.9393 52.175 60.2526 40.4751 68.9796 30.4434L68.9802 30.4426C76.6554 21.5843 86.5947 16.7742 98.3758 15.5356L98.3981 15.5333L98.4201 15.5289C98.541 15.5051 98.6689 15.5036 98.853 15.5036H98.8598H98.8667H98.8735H98.8803H98.8871H98.8939H98.9008H98.9076H98.9144H98.9212H98.928H98.9349H98.9417H98.9485H98.9553H98.9621H98.9689H98.9757H98.9826H98.9894H98.9962H99.003H99.0098H99.0166H99.0234H99.0302H99.037H99.0438H99.0506H99.0574H99.0642H99.071H99.0778H99.0846H99.0914H99.0982H99.105H99.1118H99.1186H99.1254H99.1322H99.139H99.1458H99.1526H99.1594H99.1662H99.173H99.1798H99.1865H99.1933H99.2001H99.2069H99.2137H99.2205H99.2273H99.2341H99.2408H99.2476H99.2544H99.2612H99.268H99.2747H99.2815H99.2883H99.2951H99.3019H99.3087H99.3154H99.3222H99.329H99.3358H99.3425H99.3493H99.3561H99.3629H99.3696H99.3764H99.3832H99.3899H99.3967H99.4035H99.4103H99.417H99.4238H99.4306H99.4373H99.4441H99.4509H99.4576H99.4644H99.4712H99.4779H99.4847H99.4915H99.4982H99.505H99.5117H99.5185H99.5253H99.532H99.5388H99.5455H99.5523H99.5591H99.5658H99.5726H99.5793H99.5861H99.5928H99.5996H99.6064H99.6131H99.6199H99.6266H99.6334H99.6401H99.6469H99.6536H99.6604H99.6671H99.6739H99.6806H99.6874H99.6941H99.7009H99.7076H99.7144H99.7211H99.7279H99.7346H99.7414H99.7481H99.7549H99.7616H99.7684H99.7751H99.7818H99.7886H99.7953H99.8021H99.8088H99.8156H99.8223H99.829H99.8358H99.8425H99.8493H99.856H99.8627H99.8695H99.8762H99.883H99.8897H99.8964H99.9032H99.9099H99.9167H99.9234H99.9301H99.9369H99.9436H99.9503H99.9571H99.9638H99.9705H99.9773H99.984H99.9907H99.9975H100.004H100.011H100.018H100.024H100.031H100.038H100.045H100.051H100.058H100.065H100.072H100.078H100.085H100.092H100.098H100.105H100.112H100.119H100.125H100.132H100.139H100.146H100.152H100.159H100.166H100.172H100.179H100.186H100.193H100.199H100.206H100.213H100.22H100.226H100.233H100.24H100.246H100.253H100.26H100.267H100.273H100.28H100.287H100.294H100.3H100.307H100.314H100.32H100.327H100.334H100.341H100.347H100.354H100.361H100.368H100.374H100.381H100.388H100.394H100.401H100.408H100.415H100.421H100.428H100.435H100.441H100.448H100.455H100.462H100.468H100.475H100.482H100.489H100.495H100.502H100.509H100.515H100.522H100.529H100.536H100.542H100.549H100.556H100.562H100.569H100.576H100.583H100.589H100.596H100.603H100.61H100.616H100.623H100.63H100.636H100.643H100.65H100.657H100.663H100.67H100.677H100.683H100.69H100.697H100.704H100.71H100.717H100.724H100.731H100.737H100.744H100.751H100.757H100.764H100.771H100.778H100.784H100.791H100.798H100.804H100.811H100.818H100.825H100.831H100.838H100.845H100.852H100.858H100.865H100.872H100.878H100.885H100.892H100.899H100.905H100.912H100.919H100.926H100.932H100.939H100.946H100.952H100.959H100.966H100.973H100.979H100.986H100.993H101H101.006H101.013H101.02H101.026H101.033H101.04H101.047H101.053H101.06H101.067H101.074H101.08H101.087H101.094H101.1H101.107H101.114H101.121H101.127H101.134H101.141H101.148H101.154H101.161H101.168H101.175H101.181H101.188H101.195H101.201H101.208H101.215H101.222H101.228H101.235H101.242H101.249H101.255H101.262H101.269H101.276H101.282H101.289H101.296H101.303H101.309H101.316H101.323H101.329H101.336H101.343H101.35H101.356H101.363H101.37H101.377H101.383H101.39H101.397H101.404H101.41H101.417H101.424H101.431H101.437H101.444H101.451H101.458H101.464H101.471H101.478H101.485H101.491H101.498H101.505H101.512H101.518H101.525H101.532H101.539H101.545H101.552H101.559H101.566H101.572H101.579H101.586H101.593H101.599H101.606H101.613H101.62H101.626H101.633H101.64H101.647H101.654H101.66H101.667H101.674H101.681H101.687H101.694H101.701H101.708H101.714H101.721H101.728H101.735H101.741H101.748H101.755H101.762H101.769H101.775H101.782H101.789H101.796H101.802H101.809H101.816H101.823H101.829H101.836H101.843H101.85H101.857H101.863H101.87H101.877H101.884H101.891H101.897H101.904H101.911H101.918H101.924H101.931H101.938H101.945H101.952H101.958H101.965H101.972H101.979H101.986H101.992H101.999H102.006H102.013H102.019H102.026H102.033H102.04H102.047H102.053H102.06H102.067H102.074H102.081H102.087H102.094H102.101H102.108H102.115H102.121H102.128H102.135H102.142H102.149H102.155H102.162H102.169H102.176H102.183H102.19H102.196H102.203H102.21H102.217H102.224H102.23H102.237H102.244H102.251H102.258H102.264H102.271H102.278H102.285H102.292H102.299H102.305L102.312 15.5036Z" stroke="url(#paint1_linear_144_1154)"/>
</g>
<g filter="url(#filter3_b_144_1154)">
<ellipse cx="102.485" cy="58.6267" rx="20.1549" ry="20.0666" fill="white" fill-opacity="0.4"/>
<path d="M122.14 58.6267C122.14 69.4309 113.343 78.1933 102.485 78.1933C91.6283 78.1933 82.8306 69.4309 82.8306 58.6267C82.8306 47.8224 91.6283 39.0601 102.485 39.0601C113.343 39.0601 122.14 47.8224 122.14 58.6267Z" stroke="url(#paint2_linear_144_1154)"/>
</g>
<defs>
<filter id="filter0_b_144_1154" x="101.494" y="8.73607" width="87.1356" height="104.246" filterUnits="userSpaceOnUse" color-interpolation-filters="sRGB">
<feFlood flood-opacity="0" result="BackgroundImageFix"/>
<feGaussianBlur in="BackgroundImageFix" stdDeviation="5.31507"/>
<feComposite in2="SourceAlpha" operator="in" result="effect1_backgroundBlur_144_1154"/>
<feBlend mode="normal" in="SourceGraphic" in2="effect1_backgroundBlur_144_1154" result="shape"/>
</filter>
<filter id="filter1_f_144_1154" x="0" y="0.0904541" width="147.135" height="172.91" filterUnits="userSpaceOnUse" color-interpolation-filters="sRGB">
<feFlood flood-opacity="0" result="BackgroundImageFix"/>
<feBlend mode="normal" in="SourceGraphic" in2="BackgroundImageFix" result="shape"/>
<feGaussianBlur stdDeviation="14" result="effect1_foregroundBlur_144_1154"/>
</filter>
<filter id="filter2_b_144_1154" x="47.1641" y="4.36986" width="110.281" height="133.403" filterUnits="userSpaceOnUse" color-interpolation-filters="sRGB">
<feFlood flood-opacity="0" result="BackgroundImageFix"/>
<feGaussianBlur in="BackgroundImageFix" stdDeviation="5.31507"/>
<feComposite in2="SourceAlpha" operator="in" result="effect1_backgroundBlur_144_1154"/>
<feBlend mode="normal" in="SourceGraphic" in2="effect1_backgroundBlur_144_1154" result="shape"/>
</filter>
<filter id="filter3_b_144_1154" x="48.3306" y="4.56006" width="108.31" height="108.133" filterUnits="userSpaceOnUse" color-interpolation-filters="sRGB">
<feFlood flood-opacity="0" result="BackgroundImageFix"/>
<feGaussianBlur in="BackgroundImageFix" stdDeviation="17"/>
<feComposite in2="SourceAlpha" operator="in" result="effect1_backgroundBlur_144_1154"/>
<feBlend mode="normal" in="SourceGraphic" in2="effect1_backgroundBlur_144_1154" result="shape"/>
</filter>
<linearGradient id="paint0_linear_144_1154" x1="161.086" y1="22.5138" x2="121.277" y2="85.5998" gradientUnits="userSpaceOnUse">
<stop stop-color="white"/>
<stop offset="1" stop-color="white" stop-opacity="0.4"/>
</linearGradient>
<linearGradient id="paint1_linear_144_1154" x1="61.9933" y1="23.3069" x2="158.862" y2="42.2877" gradientUnits="userSpaceOnUse">
<stop stop-color="white" stop-opacity="0.43"/>
<stop offset="1" stop-color="white" stop-opacity="0.35"/>
</linearGradient>
<linearGradient id="paint2_linear_144_1154" x1="84.232" y1="41.5329" x2="127.142" y2="52.1713" gradientUnits="userSpaceOnUse">
<stop stop-color="white" stop-opacity="0.43"/>
<stop offset="1" stop-color="white" stop-opacity="0.35"/>
</linearGradient>
</defs>
</svg>
